<?xml version="1.0" standalone="no"?>
<!DOCTYPE svg PUBLIC "-//W3C//DTD SVG 20010904//EN"
 "http://www.w3.org/TR/2001/REC-SVG-20010904/DTD/svg10.dtd">
<svg version="1.0" xmlns="http://www.w3.org/2000/svg"
 width="21.000000pt" height="20.000000pt" viewBox="0 0 21.000000 20.000000"
 preserveAspectRatio="xMidYMid meet">

<g transform="translate(0.000000,20.000000) scale(0.100000,-0.100000)"
fill="#000000" stroke="none">
<path d="M0 100 l0 -100 105 0 105 0 0 100 0 100 -105 0 -105 0 0 -100z m185
0 l0 -85 -32 -3 c-25 -2 -33 1 -33 12 0 10 9 16 25 16 24 0 25 3 25 60 0 57
-1 60 -25 60 -16 0 -25 6 -25 16 0 11 8 14 33 12 l32 -3 0 -85z m-62 32 c24
-21 21 -44 -7 -71 -29 -27 -52 -20 -36 10 10 17 7 19 -25 19 -19 0 -35 5 -35
10 0 6 16 10 36 10 31 0 35 2 24 15 -6 8 -9 19 -5 25 7 11 19 6 48 -18z"/>
</g>
</svg>
